This is another project by Cicero.
He has made this from HD videos (720 and 1080), and it is the complete show !
The quality overall is very nice. Cicero has authored also a bluray of this show, but my connection is not very good, I can´t upload it.
If somebody has a seedbox or a very good connection and want to seed the BD, just send me a pm or post in the thread.
There´s no cover for it, so feel free to post one and share !
This requires a double layer dvd. You can split it in 2 dvd5 or shrink it.

Twisted Mind
The Scarecrow
(with Jørn Lande)
Promised Land
(with Jørn Lande)
Serpents in Paradise
(with Jørn Lande)
The Story Ain't Over
(with Bob Catley)
Prelude
Reach Out for the Light
(with Michael Kiske)
The Tower
(with Michael Kiske)
Death Is Just a Feeling
(with Kai Hansen)
Lost in Space
In Quest For
(with Bob Catley)
Runaway Train
(with Jorn Lande,Michael Kiske,Bob Catley)
Dying for an Angel
(with Michael Kiske)
Stargazers
(with Jorn Lande,Michael Kiske,Oliver Hartmann)
Farewell
(with Amanda Somerville)
The Wicked Symphony
(with Jorn Lande,Michael Kiske,Oliver Hartmann)
Encore:
The Toy Master
(with Kai Hansen)
Shelter From the Rain
(with Michael Kiske,Kai Hansen on guitar)
Avantasia
(with Michael Kiske,Kai Hansen on guitar)
Sign of the Cross / The Seven Angels
(with Jorn Lande,Michael Kiske,Bob Catley,Oliver Hartmann,Amanda Somerville,Kai Hansen on guitar)


information of the first vob:
General
Complete name : G:\Avantasia Sao Paulo 2010 DVD NTSC\VIDEO_TS\VTS_01_1.VOB
Format : MPEG-PS
File size : 1 024 MiB
Duration : 23mn 11s
Overall bit rate : 6 174 Kbps
Writing library : encoded by TMPGEnc Authoring Works 4 Version. 4.0.12.42

Video
ID : 224 (0xE0)
Format : MPEG Video
Format version : Version 2
Format profile : Main@Main
Format settings, BVOP : Yes
Format settings, Matrix : Custom
Duration : 23mn 11s
Bit rate mode : Variable
Bit rate : 5 827 Kbps
Maximum bit rate : 8 000 Kbps
Width : 720 pixels
Height : 480 pixels
Display aspect ratio : 16:9
Frame rate : 29.970 fps
Standard : NTSC
Color space : YUV
Chroma subsampling : 4:2:0
Bit depth : 8 bits
Scan type : Progressive
Compression mode : Lossy
Bits/(Pixel*Frame) : 0.563
Stream size : 966 MiB (94%)
Writing library : TMPGEnc Authoring Works 4 Version. 4.0.12.42

Audio
ID : 189 (0xBD)-128 (0x80)
Format : AC-3
Format/Info : Audio Coding 3
Mode extension : CM (complete main)
Muxing mode : DVD-Video
Duration : 23mn 10s
Bit rate mode : Constant
Bit rate : 224 Kbps
Channel(s) : 2 channels
Channel positions : Front: L R
Sampling rate : 48.0 KHz
Bit depth : 16 bits
Compression mode : Lossy
Stream size : 37.1 MiB (4%)


